<svg width="16" height="16" viewBox="0 0 16 16" fill="none" xmlns="http://www.w3.org/2000/svg">
<circle cx="8" cy="8" r="8" fill="white"/>
<path d="M6.56026 11.7707C5.21969 11.7707 4.60481 10.1011 4.01047 8.48664C3.69702 7.63465 3.3735 6.75669 2.96668 6.19295C2.66254 5.77218 2.35529 5.57614 2 5.57614V5H4.8799C5.42814 5 5.89734 5.27974 6.31346 5.85549C6.76677 6.48354 7.10385 7.39908 7.43009 8.28478C7.68386 8.97405 7.94578 9.68541 8.25109 10.2263L8.3309 10.3677L8.25109 10.5091C7.7722 11.3576 7.21893 11.7703 6.56026 11.7703V11.7707ZM3.20574 5.57614C3.28323 5.65982 3.35917 5.7532 3.43317 5.85549C3.88648 6.48354 4.22356 7.39908 4.5498 8.28478C5.07711 9.71679 5.62148 11.1945 6.56026 11.1945C6.96747 11.1945 7.32237 10.9291 7.66953 10.3623C7.377 9.80707 7.12981 9.13562 6.88998 8.48471C6.57692 7.63426 6.25379 6.7563 5.84659 6.19257C5.54244 5.7718 5.23519 5.57575 4.8799 5.57575H3.20613L3.20574 5.57614Z" fill="black"/>
<path d="M9.44019 11.7708C8.78153 11.7708 8.22826 11.3581 7.74937 10.5096L7.66956 10.3682L7.74937 10.2268C8.05468 9.6859 8.31659 8.97454 8.56998 8.28643C8.8966 7.39918 9.23368 6.48364 9.68661 5.85597C10.1031 5.28023 10.5719 5.00049 11.1202 5.00049H14.0001V5.57662C13.6448 5.57662 13.3375 5.77267 13.0334 6.19344C12.6266 6.75679 12.3034 7.63475 11.9908 8.48365C11.3953 10.1012 10.7804 11.7711 9.43981 11.7711L9.44019 11.7708ZM8.33093 10.3628C8.67808 10.9296 9.03299 11.195 9.44019 11.195C10.379 11.195 10.9233 9.71689 11.4495 8.2876C11.7765 7.39918 12.1136 6.48364 12.5669 5.85597C12.6409 5.7533 12.7168 5.66031 12.7947 5.57624H11.1209C10.7657 5.57624 10.4584 5.77228 10.1543 6.19305C9.74744 6.7564 9.42431 7.63436 9.11164 8.48326C8.87142 9.13572 8.62423 9.80717 8.33132 10.3624L8.33093 10.3628Z" fill="black"/>
</svg>
